<svg xmlns="http://www.w3.org/2000/svg" width="1080" height="808">
  <path fill="#f4e0f5"
    d="m0 176 36 6.5c36 6.5 108 19.5 180 18.3 72-1.1 144-16.5 216-18s144 10.9 216 10.7c72-.2 144-12.8 216-18 72-5.2 144-2.8 180-1.7l36 1.2V0H0Z" />
  <path fill="#e0c3e9"
    d="m0 98 36 5.2c36 5.1 108 15.5 180 16.1 72 .7 144-8.3 216-6.6 72 1.6 144 14 216 22.8s144 14.2 216 14.3c72 .2 144-4.8 180-7.3l36-2.5V0H0Z" />
  <path fill="#cab4d9"
    d="m0 67 36 3.3c36 3.4 108 10 180 12s144-.6 216-9.1 144-22.9 216-22.9S792 64.7 864 70c72 5.3 144 1.7 180-.2l36-1.8V0H0Z" />
</svg>