<svg id="visual" viewBox="0 0 1080 808" width="1080" height="808" xmlns="http://www.w3.org/2000/svg"
    xmlns:xlink="http://www.w3.org/1999/xlink" version="1.1">
    <path
        d="M 0 209 L 36 212.8 C 72 216.7 144 224.3 216 231.2 C 288 238 360 244 432 243 C 504 242 576 234 648 237.3 C 720 240.7 792 255.3 864 257.2 C 936 259 1008 248 1044 242.5 L 1080 237 L 1080 0 L 1044 0 C 1008 0 936 0 864 0 C 792 0 720 0 648 0 C 576 0 504 0 432 0 C 360 0 288 0 216 0 C 144 0 72 0 36 0 L 0 0 Z"
        fill="#f2efeb"></path>
    <path
        d="M 0 176 L 36 182.5 C 72 189 144 202 216 200.8 C 288 199.7 360 184.3 432 182.8 C 504 181.3 576 193.7 648 193.5 C 720 193.3 792 180.7 864 175.5 C 936 170.3 1008 172.7 1044 173.8 L 1080 175 L 1080 0 L 1044 0 C 1008 0 936 0 864 0 C 792 0 720 0 648 0 C 576 0 504 0 432 0 C 360 0 288 0 216 0 C 144 0 72 0 36 0 L 0 0 Z"
        fill="#f4e0f5"></path>
    <path
        d="M 0 98 L 36 103.2 C 72 108.3 144 118.7 216 119.3 C 288 120 360 111 432 112.7 C 504 114.3 576 126.7 648 135.5 C 720 144.3 792 149.7 864 149.8 C 936 150 1008 145 1044 142.5 L 1080 140 L 1080 0 L 1044 0 C 1008 0 936 0 864 0 C 792 0 720 0 648 0 C 576 0 504 0 432 0 C 360 0 288 0 216 0 C 144 0 72 0 36 0 L 0 0 Z"
        fill="#e0c3e9"></path>
    <path
        d="M 0 67 L 36 70.3 C 72 73.7 144 80.3 216 82.3 C 288 84.3 360 81.7 432 73.2 C 504 64.7 576 50.3 648 50.3 C 720 50.3 792 64.7 864 70 C 936 75.3 1008 71.7 1044 69.8 L 1080 68 L 1080 0 L 1044 0 C 1008 0 936 0 864 0 C 792 0 720 0 648 0 C 576 0 504 0 432 0 C 360 0 288 0 216 0 C 144 0 72 0 36 0 L 0 0 Z"
        fill="#cab4d9"></path>
</svg>