<svg id="visual" viewBox="0 0 1080 808" width="1080" height="808" xmlns="http://www.w3.org/2000/svg"
    xmlns:xlink="http://www.w3.org/1999/xlink" version="1.1">
    <path
        d="M233 0L218.3 33.7C203.7 67.3 174.3 134.7 277.3 202C380.3 269.3 615.7 336.7 701.7 404C787.7 471.3 724.3 538.7 735.5 606C746.7 673.3 832.3 740.7 875.2 774.3L918 808L0 808L0 774.3C0 740.7 0 673.3 0 606C0 538.7 0 471.3 0 404C0 336.7 0 269.3 0 202C0 134.7 0 67.3 0 33.7L0 0Z"
        fill="#cab4d9" stroke-linecap="round" stroke-linejoin="miter"></path>
</svg>