<svg xmlns="http://www.w3.org/2000/svg" width="900" height="600">
    <path transform="matrix(1,0,0,1.1,0,-29.7)" fill="#f4e0f5"
        d="M 422 575.9 l -8.8 -20 c -8.9 -20 -26.5 -60 -5.3 -100 s 81.3 -80 94.1 -120 c 12.7 -40 -21.8 -80 -34.2 -120 c -12.4 -40 -2.7 -80 0.7 -120 c 3.4 -40 0.4 -80 -1.1 -100 l -1.5 -20 H 938 v 600 Z" />
    <path transform="matrix(1,0,0,1.1,0,-29.7)" fill="#e0c3e9"
        d="M 605.9 577 l -12.4 -20 c -12.3 -20 -37 -60 -48.5 -100 c -11.3 -40 -9.5 -80 1 -120 s 29.6 -80 40.8 -120 c 11.2 -40 14.6 -80 4.5 -120 s -33.7 -80 -45.5 -100 L 534 -23 h 403 v 600 Z" />
    <path transform="matrix(1,0,0,1.1,0,-29.7)" fill="#cab4d9"
        d="M 731.9 575.9 l -17.3 -20 c -17.3 -20 -51.9 -60 -59.6 -100 c -7.7 -40 11.8 -80 26 -120 c 14.5 -40 24 -80 13.8 -120 c -10.1 -40 -39.8 -80 -42.1 -120 c -2.2 -40 22.9 -80 35.6 -100 l 12.5 -20 H 937 v 600 Z" />
</svg>