<svg id="visual" viewBox="0 0 900 600" width="900" height="600" xmlns="http://www.w3.org/2000/svg"
    xmlns:xlink="http://www.w3.org/1999/xlink" version="1.1">
    <path
        d="M 421 602 L 412.2 582 C 403.3 562 385.7 522 406.9 482 C 428.1 442 488.2 402 501 362 C 513.7 322 479.2 282 466.8 242 C 454.4 202 464.1 162 467.5 122 C 470.9 82 467.9 42 466.4 22 L 464.9 2 L 937 2 L 937 22 C 937 42 937 82 937 122 C 937 162 937 202 937 242 C 937 282 937 322 937 362 C 937 402 937 442 937 482 C 937 522 937 562 937 582 L 937 602 Z"
        fill="#f4e0f5"></path>
    <path
        d="M 605.9 602 L 593.5 582 C 581.2 562 556.5 522 545 482 C 533.7 442 535.5 402 546 362 C 556.5 322 575.6 282 586.8 242 C 598 202 601.4 162 591.3 122 C 581.2 82 557.6 42 545.8 22 L 534 2 L 937 2 L 937 22 C 937 42 937 82 937 122 C 937 162 937 202 937 242 C 937 282 937 322 937 362 C 937 402 937 442 937 482 C 937 522 937 562 937 582 L 937 602 Z"
        fill="#e0c3e9"></path>
    <path
        d="M 731.9 601 L 714.6 581 C 697.3 561 662.7 521 655 481 C 647.3 441 666.8 401 681 361 C 695.5 321 705 281 694.8 241 C 684.7 201 655 161 652.7 121 C 650.5 81 675.6 41 688.3 21 L 700.8 1 L 937 1 L 937 21 C 937 41 937 81 937 121 C 937 161 937 201 937 241 C 937 281 937 321 937 361 C 937 401 937 441 937 481 C 937 521 937 561 937 581 L 937 601 Z"
        fill="#cab4d9"></path>
</svg>